<svg xmlns="http://www.w3.org/2000/svg" width="200" height="200" viewBox="0 0 200 200">
  <metadata><?xpacket begin="﻿" id="W5M0MpCehiHzreSzNTczkc9d"?>
<x:xmpmeta xmlns:x="adobe:ns:meta/" x:xmptk="Adobe XMP Core 5.6-c142 79.160924, 2017/07/13-01:06:39        ">
   <rdf:RDF xmlns:rdf="http://www.w3.org/1999/02/22-rdf-syntax-ns#">
      <rdf:Description rdf:about=""/>
   </rdf:RDF>
</x:xmpmeta>
                                                                                                    
                                                                                                    
                                                                                                    
                                                                                                    
                                                                                                    
                                                                                                    
                                                                                                    
                                                                                                    
                                                                                                    
                                                                                                    
                                                                                                    
                                                                                                    
                                                                                                    
                                                                                                    
                                                                                                    
                                                                                                    
                                                                                                    
                                                                                                    
                                                                                                    
                                                                                                    
                           
<?xpacket end="w"?></metadata>
<defs>
    <style>
      .cls-1 {
        fill: #8cd3bf;
        fill-rule: evenodd;
      }
    </style>
  </defs>
  <path id="Rounded_Rectangle_1" data-name="Rounded Rectangle 1" class="cls-1" d="M100.952,11h0.81a10,10,0,0,1,10,10V181a10,10,0,0,1-10,10h-0.81a10,10,0,0,1-10-10V21A10,10,0,0,1,100.952,11Z"/>
  <path id="Rounded_Rectangle_1_copy" data-name="Rounded Rectangle 1 copy" class="cls-1" d="M15,69.794H15.81a10,10,0,0,1,10,10v65.93a10,10,0,0,1-10,10H15a10,10,0,0,1-10-10V79.794A10,10,0,0,1,15,69.794Z"/>
  <path id="Rounded_Rectangle_1_copy_7" data-name="Rounded Rectangle 1 copy 7" class="cls-1" d="M15,69.794H15.81a10,10,0,0,1,10,10v65.93a10,10,0,0,1-10,10H15a10,10,0,0,1-10-10V79.794A10,10,0,0,1,15,69.794Z"/>
  <path id="Rounded_Rectangle_1_copy_6" data-name="Rounded Rectangle 1 copy 6" class="cls-1" d="M184.19,45.372H185a10,10,0,0,1,10,10v90.352a10,10,0,0,1-10,10h-0.81a10,10,0,0,1-10-10V55.372A10,10,0,0,1,184.19,45.372Z"/>
  <path id="Rounded_Rectangle_1_copy_2" data-name="Rounded Rectangle 1 copy 2" class="cls-1" d="M56.619,29.091h0.81a10,10,0,0,1,10,10V161.1a10,10,0,0,1-10,10h-0.81a10,10,0,0,1-10-10V39.09A10,10,0,0,1,56.619,29.091Z"/>
  <path id="Rounded_Rectangle_1_copy_5" data-name="Rounded Rectangle 1 copy 5" class="cls-1" d="M142.571,30h0.81a10,10,0,0,1,10,10V145.724a10,10,0,0,1-10,10h-0.81a10,10,0,0,1-10-10V39.995A10,10,0,0,1,142.571,30Z"/>
  <path class="cls-1" d="M15.4,45.372a8.593,8.593,0,1,1-8.6,8.593A8.594,8.594,0,0,1,15.4,45.372Z"/>
  <path id="Ellipse_1_copy" data-name="Ellipse 1 copy" class="cls-1" d="M142.976,162.96a8.593,8.593,0,1,1-8.595,8.593A8.594,8.594,0,0,1,142.976,162.96Z"/>
</svg>
